Coordinates
version=1
nRows=24
nColumns=24
inDegrees=yes

Units are S.I. units (second, meters, Newtons, ...)
Angles are in degrees.

endheader
time	pelvis_tilt	pelvis_list	pelvis_rotation	pelvis_tx	pelvis_ty	pelvis_tz	hip_flexion_r	hip_adduction_r	hip_rotation_r	knee_angle_r	ankle_angle_r	subtalar_angle_r	mtp_angle_r	hip_flexion_l	hip_adduction_l	hip_rotation_l	knee_angle_l	ankle_angle_l	subtalar_angle_l	mtp_angle_l	lumbar_extension	lumbar_bending	lumbar_rotation
      3.87000000	     -9.32559855	     -4.26854460	     14.72427776	     -1.31299561	     -0.05250748	      0.62935773	     38.56255496	     -3.83427084	    -22.03648318	    -14.38842184	     -1.90466026	      3.41681181	      0.73499212	     -8.10498204	     -3.11028422	     11.87617456	    -13.15351763	     14.70099529	     11.01017080	     15.00423425	      4.06125012	      1.15508389	    -16.92611509
      3.87500000	     -9.39731438	     -4.58396235	     14.80686845	     -1.30478432	     -0.05393353	      0.62931509	     38.68353538	     -3.51808892	    -22.07611971	    -14.92264731	     -2.48873991	      3.40859225	      0.81004505	     -8.18843236	     -3.56338115	     11.87895841	    -13.72173918	     14.54362555	     11.29807499	     15.32982252	      4.32277025	      1.50504366	    -17.04365386
      3.88000000	     -9.41640108	     -4.90436429	     14.86684754	     -1.29662946	     -0.05523938	      0.62938549	     38.75811249	     -3.16263449	    -22.00667109	    -15.47565577	     -3.30148184	      3.09557659	      1.14980538	     -8.21357152	     -4.06079894	     11.38007714	    -14.45408046	     14.35785524	     12.12197583	     16.08013657	      4.51467543	      1.87331502	    -17.11195867
      3.88500000	     -9.47986677	     -5.25709010	     14.87427595	     -1.28838698	     -0.05651399	      0.62945106	     38.90233807	     -2.77621971	    -21.85783596	    -16.09875511	     -4.22379386	      2.71078478	      1.43179666	     -8.19905950	     -4.56093760	     11.02650030	    -15.18741056	     14.06806290	     12.72629614	     16.71806831	      4.77958605	      2.27494077	    -17.11747603
      3.89000000	     -9.53692718	     -5.61261281	     14.82108913	     -1.28012842	     -0.05769840	      0.62959466	     39.07524504	     -2.36379157	    -21.64652249	    -16.81016098	     -5.20875353	      2.21848215	      1.63292537	     -8.16299596	     -5.06187031	     10.59171204	    -15.97904955	     13.67602188	     13.38020169	     17.43181936	      5.03742048	      2.69449326	    -17.06232559
      3.89500000	     -9.59862170	     -5.98773661	     14.74503303	     -1.27188214	     -0.05878190	      0.62973119	     39.28372590	     -1.93644594	    -21.36234862	    -17.60598056	     -6.20070713	      1.58986216	      1.67536371	     -8.07296099	     -5.57676940	     10.11490378	    -16.84673774	     13.18116513	     14.05172734	     18.21989029	      5.30436539	      3.14160119	    -16.97918407
      3.90000000	     -9.66069912	     -6.36534302	     14.61838517	     -1.26362050	     -0.05974745	      0.62993414	     39.52264795	     -1.48338893	    -21.00077564	    -18.48696997	     -7.13312640	      0.83350765	      1.56094090	     -7.94057691	     -6.09586866	      9.55218322	    -17.78888462	     12.53681321	     14.79357188	     19.14360773	      5.57148210	      3.59955628	    -16.81529088
      3.90500000	     -9.71849442	     -6.74209922	     14.44665780	     -1.25540529	     -0.06061482	      0.63018170	     39.79352325	     -1.01043176	    -20.55440241	    -19.46682785	     -7.94944344	     -0.02115941	      1.27951534	     -7.75502091	     -6.61412093	      8.90863515	    -18.83346370	     11.77405967	     15.57625727	     20.20770291	      5.82203321	      4.07093417	    -16.62259750
      3.91000000	     -9.78041203	     -7.11654832	     14.23372816	     -1.24719527	     -0.06136117	      0.63046616	     40.08797506	     -0.51611342	    -20.04956807	    -20.51966020	     -8.62112137	     -0.94359420	      0.85202203	     -7.51461153	     -7.13379158	      8.19948044	    -19.96560711	     10.84732947	     16.42134810	     21.38485142	      6.07081848	      4.54680357	    -16.38650073
      3.91500000	     -9.82714804	     -7.48239668	     13.97097267	     -1.23896954	     -0.06197532	      0.63080301	     40.37031767	      0.01131081	    -19.50324072	    -21.61639333	     -9.11745868	     -1.87248087	      0.33065006	     -7.24418669	     -7.65949355	      7.39966436	    -21.17948728	      9.73236784	     17.33028274	     22.74143947	      6.29634785	      5.02714646	    -16.08440780
      3.92000000	     -9.85745640	     -7.84481736	     13.67323676	     -1.23075236	     -0.06244171	      0.63118755	     40.62594417	      0.57030648	    -18.97132369	    -22.72456124	     -9.46776404	     -2.78142705	     -0.24254934	     -6.94380223	     -8.19596765	      6.59534522	    -22.46268830	      8.42178264	     18.25132370	     24.30341245	      6.49356732	      5.51601359	    -15.70216548
      3.92500000	     -9.94465533	     -8.18711600	     13.43338774	     -1.22263600	     -0.06282572	      0.63157393	     40.90320390	      1.08766799	    -18.41659264	    -23.77681024	     -9.72598225	     -3.80245627	     -0.60078321	     -6.46352974	     -8.72115323	      5.86012103	    -23.94660755	      6.99808089	     19.36264226	     25.37707977	      6.73982385	      5.95089140	    -15.45952767
      3.93000000	     -9.91088785	     -8.51144376	     13.08966400	     -1.21440516	     -0.06297851	      0.63205303	     41.00751752	      1.70969676	    -17.84854600	    -24.77772159	     -9.78866813	     -4.68386605	     -0.99647103	     -6.12799557	     -9.27112969	      4.95976347	    -25.36925482	      5.22313948	     20.22041694	     27.34877722	      6.84596255	      6.41909525	    -15.06397656
      3.93500000	     -9.96651110	     -8.83300125	     12.74389700	     -1.20625452	     -0.06315171	      0.63254506	     41.15849252	      2.31850142	    -17.29107003	    -25.69151965	     -9.75226267	     -5.45313223	     -1.05528103	     -5.57967726	     -9.82238802	      4.04782571	    -27.02992385	      3.43120175	     21.31842103	     28.47563074	      7.03635953	      6.86036323	    -14.70635136
      3.94000000	     -9.96712032	     -9.10670571	     12.40861610	     -1.19821989	     -0.06311353	      0.63311221	     41.18957176	      2.91900155	    -16.76696551	    -26.50261285	     -9.67322137	     -6.20437793	     -0.95145219	     -5.03099311	    -10.35979414	      3.20400627	    -28.73335325	      1.41760934	     22.35154463	     29.76908149	      7.12956513	      7.25434926	    -14.32977640
      3.94500000	     -9.96582085	     -9.35469234	     12.07122270	     -1.19018602	     -0.06295675	      0.63369577	     41.14344780	      3.51468864	    -16.28755264	    -27.19710929	     -9.47985691	     -6.86504740	     -0.64229797	     -4.43317154	    -10.88784034	      2.40796135	    -30.49054931	     -0.74161427	     23.31815881	     30.91718235	      7.21612542	      7.61858278	    -13.98443151
      3.95000000	     -9.96882243	     -9.60486390	     11.74093231	     -1.18215774	     -0.06271027	      0.63427973	     41.02674656	      4.12252748	    -15.84819116	    -27.76830482	     -9.16825089	     -7.42280061	     -0.22198487	     -3.76532198	    -11.42718703	      1.68494081	    -32.32270024	     -2.93776458	     24.16776827	     31.74787626	      7.30739527	      7.97851229	    -13.66654622
      3.95500000	     -9.95554600	     -9.82400776	     11.42819330	     -1.17429750	     -0.06233116	      0.63489706	     40.83286589	      4.70455315	    -15.45778914	    -28.23021279	     -8.83674544	     -7.92052230	      0.30939046	     -3.03473822	    -11.94479625	      1.06024019	    -34.22317921	     -5.15017627	     24.90126770	     32.43011536	      7.34953311	      8.30136448	    -13.35960618
      3.96000000	     -9.91776941	    -10.00639687	     11.15153919	     -1.16653088	     -0.06185093	      0.63541912	     40.55593366	      5.21215628	    -15.20902229	    -28.63986425	     -8.27633158	     -8.05533207	      0.71146756	     -2.26316903	    -12.41975973	      0.55499455	    -36.18901574	     -7.25249889	     25.52052389	     32.67770217	      7.35005776	      8.59235987	    -13.08285066
      3.96500000	     -9.93555191	    -10.23649163	     10.86277321	     -1.15877282	     -0.06127887	      0.63613705	     40.25702641	      5.82444298	    -14.84088850	    -28.83616537	     -7.95455530	     -8.66159146	      1.38731373	     -1.37052829	    -12.94510307	      0.14471438	    -38.14780936	     -9.32510153	     25.93664107	     33.15250934	      7.42340529	      8.89140407	    -12.83946107
      3.97000000	     -9.91868256	    -10.45067435	     10.61597950	     -1.15119318	     -0.06061523	      0.63669832	     39.87989580	      6.36048685	    -14.63632179	    -28.98366330	     -7.46505792	     -8.85391169	      2.03263303	     -0.42937324	    -13.43687810	     -0.15734879	    -40.17958627	    -11.15888184	     26.14055757	     33.34936071	      7.43972330	      9.19220584	    -12.62721638
      3.97500000	     -9.84746232	    -10.65123468	     10.38546974	     -1.14372929	     -0.05981201	      0.63721339	     39.39710258	      6.88562679	    -14.45990607	    -29.06825143	     -6.87203077	     -8.84970707	      2.33914784	      0.50788447	    -13.89454535	     -0.37116624	    -42.23768755	    -12.73448071	     26.02546958	     33.33258334	      7.38332958	      9.48981331	    -12.42699926
      3.98000000	     -9.88686454	    -10.90885690	     10.19374589	     -1.13633690	     -0.05905449	      0.63779595	     38.98854420	      7.42600663	    -14.33454953	    -29.02099940	     -6.41947736	     -9.04967903	      2.91429838	      1.65978467	    -14.39768360	     -0.44635146	    -44.32418952	    -14.06198053	     25.93504042	     33.43860798	      7.46695520	      9.79668808	    -12.30522618
      3.98500000	     -9.80398683	    -11.11751753	      9.97144385	     -1.12903389	     -0.05807588	      0.63830915	     38.39452140	      7.96278262	    -14.16777513	    -28.91547410	     -5.84166522	     -8.95667183	      3.18017777	      2.67348426	    -14.83159743	     -0.52644678	    -46.36863529	    -15.09091175	     25.47995516	     33.41277696	      7.38995214	     10.09937456	    -12.11144413
